<svg width="109" height="50" viewBox="0 0 109 50" fill="none" xmlns="http://www.w3.org/2000/svg">
<path d="M0 0H109V50H0V0ZM1.87125 1.86915V48.1309H107.128V1.86915H1.87125Z" fill="#2B2B2B"/>
<path d="M23.2999 10.163V17.7578H18.4775V12.2024H11.3671L12.775 13.2924V17.7578L23.2999 30.6617V36.2172V40.0145C23.2999 41.878 21.7863 43.4955 19.815 43.4955H11.4375C9.46637 43.4955 7.95264 41.8782 7.95264 40.0145V32.1736H12.775V37.94H18.4775V32.3845L7.95264 19.4806V10.1629C7.95264 8.19395 9.46619 6.68195 11.4375 6.68195H19.815C21.7862 6.68195 23.2999 8.19382 23.2999 10.1629V10.163ZM30.5868 32.4201H35.5501L33.086 12.2372L30.5868 32.4201ZM24.3565 43.5309L28.7563 7.77169L27.8763 6.71687H37.2747L41.8155 43.5307H36.9227L36.254 37.9753L28.4747 37.9401L29.7771 38.9598L29.2139 43.5307H24.3563L24.3565 43.5309ZM48.3628 43.3902H43.5053V7.66656L42.6253 6.57657H48.3629V43.3904L48.3628 43.3902ZM56.1069 22.1889H61.774V12.0977H54.6636L56.1069 13.1878V22.1889ZM66.597 10.0579V24.2627C66.597 26.2316 65.0834 27.7436 63.1121 27.7436H62.4433L66.5969 43.3897H61.5986L57.4449 27.7436H54.6641L56.1073 28.8336V43.3908H51.2498V12.0974V7.63204L50.3698 6.54205L63.1121 6.57722C65.0834 6.57722 66.597 8.08909 66.597 10.0582V10.0579ZM73.3197 37.9402H79.0221V12.2383H71.9117L73.3197 13.3283V37.9414V37.9402ZM83.844 10.163V40.0152C83.844 41.9842 82.3305 43.4962 80.3592 43.4962H71.9816C70.0104 43.4962 68.4967 41.9844 68.4967 40.0152V10.163C68.4967 8.29957 70.0103 6.68211 71.9816 6.68211H80.3592C82.3303 6.68211 83.844 8.29944 83.844 10.163ZM84.5133 6.68224H90.1453L93.4186 33.1232L96.6573 6.68224H101.515L97.0089 43.496H89.7932L85.4284 7.77238H85.3932L84.5133 6.68224Z" fill="#2B2B2B"/>
</svg>
